<svg width="35" height="35" viewBox="0 0 35 35" fill="none" xmlns="http://www.w3.org/2000/svg">
<path d="M34.6072 17.1201C34.6072 26.5084 26.9955 34.1201 17.6072 34.1201C8.21886 34.1201 0.607178 26.5084 0.607178 17.1201C0.607178 7.7318 8.21886 0.120117 17.6072 0.120117C26.9975 0.120117 34.6072 7.7318 34.6072 17.1201Z" fill="#2081E2"/>
<path d="M8.99426 17.6913L9.0676 17.576L13.49 10.6578C13.5546 10.5565 13.7066 10.567 13.7555 10.677C14.4943 12.3328 15.1318 14.392 14.8331 15.674C14.7056 16.2015 14.3563 16.9158 13.9633 17.576C13.9127 17.6721 13.8568 17.7664 13.7974 17.8573C13.7694 17.8992 13.7223 17.9236 13.6716 17.9236H9.1235C9.00123 17.9236 8.92963 17.7909 8.99426 17.6913Z" fill="white"/>
<path d="M28.7063 18.9769V20.072C28.7063 20.1349 28.6679 20.1908 28.612 20.2152C28.2697 20.3619 27.0977 20.8999 26.6104 21.5776C25.3668 23.3084 24.4167 25.7834 22.2928 25.7834H13.4323C10.292 25.7834 7.74719 23.2299 7.74719 20.079V19.9777C7.74719 19.8939 7.81529 19.8258 7.89914 19.8258H12.8385C12.9363 19.8258 13.0079 19.9166 12.9992 20.0126C12.9643 20.334 13.0237 20.6624 13.1756 20.961C13.469 21.5566 14.0768 21.9287 14.7335 21.9287H17.1788V20.0196H14.7615C14.6375 20.0196 14.5642 19.8764 14.6358 19.7751C14.6619 19.7349 14.6917 19.693 14.7231 19.6459C14.9519 19.321 15.2785 18.8162 15.6034 18.2416C15.8252 17.8539 16.04 17.4399 16.2129 17.0242C16.2479 16.9491 16.2758 16.8722 16.3037 16.7971C16.3509 16.6644 16.3998 16.5404 16.4347 16.4164C16.4697 16.3116 16.4976 16.2016 16.5255 16.0985C16.6077 15.7457 16.6426 15.3719 16.6426 14.9842C16.6426 14.8322 16.6356 14.6733 16.6216 14.5213C16.6146 14.3554 16.5937 14.1895 16.5727 14.0235C16.5587 13.8768 16.5326 13.7319 16.5046 13.5799C16.4697 13.3581 16.4208 13.1381 16.3649 12.9162L16.3457 12.8324C16.3037 12.6804 16.2688 12.5355 16.2199 12.3835C16.0819 11.9067 15.923 11.4421 15.7553 11.0072C15.6942 10.8343 15.6243 10.6684 15.5544 10.5024C15.4514 10.2527 15.3466 10.0256 15.2506 9.81078C15.2017 9.71296 15.1597 9.62388 15.1178 9.53307C15.0707 9.43001 15.0218 9.32696 14.9728 9.22917C14.9379 9.15407 14.8977 9.0842 14.8698 9.01433L14.5711 8.46241C14.5292 8.3873 14.5991 8.29822 14.6812 8.32093L16.55 8.82743H16.5553C16.5587 8.82743 16.5605 8.8292 16.5622 8.8292L16.8085 8.8973L17.0792 8.97417L17.1788 9.00209V7.89127C17.1788 7.35506 17.6084 6.92017 18.1394 6.92017C18.4049 6.92017 18.6459 7.02846 18.8189 7.20485C18.9917 7.38127 19.1 7.6223 19.1 7.89127V9.54007L19.2992 9.59593C19.3149 9.6012 19.3306 9.60817 19.3446 9.61864C19.3935 9.65533 19.4633 9.70946 19.5524 9.77586C19.6223 9.83172 19.6974 9.89986 19.7882 9.96973C19.9681 10.1147 20.1829 10.3016 20.4187 10.5164C20.4816 10.5705 20.5427 10.6264 20.5986 10.6823C20.9025 10.9653 21.2431 11.2971 21.568 11.6639C21.6588 11.767 21.7479 11.8718 21.8387 11.9818C21.9295 12.0936 22.0256 12.2036 22.1094 12.3137C22.2195 12.4604 22.3382 12.6123 22.4413 12.7713C22.4902 12.8464 22.5461 12.9232 22.5932 12.9983C22.726 13.1992 22.843 13.407 22.9548 13.6149C23.0019 13.7109 23.0508 13.8157 23.0928 13.9188C23.2168 14.1965 23.3146 14.4794 23.3774 14.7624C23.3966 14.8235 23.4106 14.8899 23.4176 14.9493V14.9632C23.4386 15.0471 23.4456 15.1361 23.4525 15.2269C23.4805 15.5169 23.4665 15.8068 23.4036 16.0985C23.3774 16.2225 23.3425 16.3395 23.3006 16.4636C23.2587 16.5823 23.2168 16.7063 23.1626 16.8233C23.0578 17.0661 22.9338 17.3089 22.7871 17.536C22.7399 17.6198 22.684 17.7089 22.6281 17.7927C22.567 17.8818 22.5041 17.9656 22.4482 18.0477C22.3714 18.1525 22.2893 18.2625 22.2055 18.3603C22.1304 18.4634 22.0535 18.5665 21.9697 18.6573C21.8527 18.7952 21.7409 18.9262 21.6239 19.052C21.554 19.1341 21.4789 19.2179 21.402 19.293C21.327 19.3768 21.2501 19.452 21.1802 19.5218C21.0632 19.6389 20.9654 19.7297 20.8833 19.8048L20.6912 19.9812C20.6632 20.0056 20.6266 20.0196 20.5881 20.0196H19.1V21.9287H20.9724C21.3916 21.9287 21.7898 21.7802 22.1112 21.5077C22.2212 21.4116 22.7015 20.996 23.2691 20.3689C23.2884 20.348 23.3128 20.3322 23.3408 20.3253L28.5124 18.8302C28.6085 18.8022 28.7063 18.8756 28.7063 18.9769Z" fill="white"/>
</svg>
