<svg width="24" height="345" viewBox="0 0 24 345" fill="none" xmlns="http://www.w3.org/2000/svg">
<path d="M12.66 3.44672L12.63 3.51672L9.73002 10.2467H6.88002C6.20002 10.2467 5.55002 10.3867 4.96002 10.6367L6.71002 6.45672L6.75002 6.35672L6.82002 6.19672C6.84002 6.13672 6.86002 6.07672 6.89002 6.02672C8.20002 2.99672 9.68002 2.30672 12.66 3.44672Z" stroke="#777E90" stroke-width="1.5" stroke-linecap="round" stroke-linejoin="round"/>
<path d="M18.05 10.4468C17.6 10.3068 17.12 10.2468 16.64 10.2468H9.72998L12.63 3.51678L12.66 3.44678C12.81 3.49678 12.95 3.56678 13.1 3.62678L15.31 4.55678C16.54 5.06678 17.4 5.59678 17.92 6.23678C18.02 6.35678 18.1 6.46678 18.17 6.59678C18.26 6.73678 18.33 6.87678 18.37 7.02678C18.41 7.11678 18.44 7.20678 18.46 7.28678C18.73 8.12678 18.57 9.15678 18.05 10.4468Z" stroke="#777E90" stroke-width="1.5" stroke-linecap="round" stroke-linejoin="round"/>
<path d="M21.5217 15.1269V17.0769C21.5217 17.2769 21.5117 17.4769 21.5017 17.6769C21.3117 21.1669 19.3617 22.9269 15.6617 22.9269H7.86172C7.62172 22.9269 7.38172 22.9069 7.15172 22.8769C3.97172 22.6669 2.27172 20.9669 2.06172 17.7869C2.03172 17.5569 2.01172 17.3169 2.01172 17.0769V15.1269C2.01172 13.1169 3.23172 11.3869 4.97172 10.6369C5.57172 10.3869 6.21172 10.2469 6.89172 10.2469H16.6517C17.1417 10.2469 17.6217 10.3169 18.0617 10.4469C20.0517 11.0569 21.5217 12.9169 21.5217 15.1269Z" stroke="#777E90" stroke-width="1.5" stroke-linecap="round" stroke-linejoin="round"/>
<path d="M6.71 6.45667L4.96 10.6367C3.22 11.3867 2 13.1167 2 15.1267V12.1967C2 9.35667 4.02 6.98667 6.71 6.45667Z" stroke="#777E90" stroke-width="1.5" stroke-linecap="round" stroke-linejoin="round"/>
<path d="M21.5186 12.1962V15.1262C21.5186 12.9262 20.0586 11.0562 18.0586 10.4562C18.5786 9.15624 18.7286 8.13625 18.4786 7.28625C18.4586 7.19625 18.4286 7.10625 18.3886 7.02625C20.2486 7.98625 21.5186 9.95625 21.5186 12.1962Z" stroke="#777E90" stroke-width="1.5" stroke-linecap="round" stroke-linejoin="round"/>
<path d="M2.5 128.168V126.438C2.5 124.368 4.18999 122.678 6.25999 122.678H17.74C19.81 122.678 21.5 124.368 21.5 126.438V127.878H19.48C18.92 127.878 18.41 128.098 18.04 128.478C17.62 128.888 17.38 129.478 17.44 130.108C17.53 131.188 18.52 131.978 19.6 131.978H21.5V133.168C21.5 135.238 19.81 136.928 17.74 136.928H12.26" stroke="#777E90" stroke-width="1.5" stroke-linecap="round" stroke-linejoin="round"/>
<path d="M2.5 127.339V122.769C2.5 121.579 3.23 120.519 4.34 120.099L12.28 117.099C13.52 116.629 14.85 117.549 14.85 118.879V122.679" stroke="#777E90" stroke-width="1.5" stroke-linecap="round" stroke-linejoin="round"/>
<path d="M22.5588 128.899V130.959C22.5588 131.509 22.1188 131.959 21.5588 131.979H19.5988C18.5188 131.979 17.5288 131.189 17.4388 130.109C17.3788 129.479 17.6188 128.889 18.0388 128.479C18.4088 128.099 18.9188 127.879 19.4788 127.879H21.5588C22.1188 127.899 22.5588 128.349 22.5588 128.899Z" stroke="#777E90" stroke-width="1.5" stroke-linecap="round" stroke-linejoin="round"/>
<path d="M7 126.929H14" stroke="#777E90" stroke-width="1.5" stroke-linecap="round" stroke-linejoin="round"/>
<path d="M3 131.429H8.34C8.98 131.429 9.5 131.949 9.5 132.589V133.869" stroke="#777E90" stroke-width="1.5" stroke-miterlimit="10" stroke-linecap="round" stroke-linejoin="round"/>
<path d="M4.22 130.209L3 131.429L4.22 132.649" stroke="#777E90" stroke-width="1.5" stroke-miterlimit="10" stroke-linecap="round" stroke-linejoin="round"/>
<path d="M9.5 136.709H4.16C3.52 136.709 3 136.189 3 135.549V134.269" stroke="#777E90" stroke-width="1.5" stroke-miterlimit="10" stroke-linecap="round" stroke-linejoin="round"/>
<path d="M8.28125 137.929L9.50125 136.709L8.28125 135.489" stroke="#777E90" stroke-width="1.5" stroke-miterlimit="10" stroke-linecap="round" stroke-linejoin="round"/>
<path d="M8.89569 236.386H4.55247C3.51992 236.386 2.68408 237.222 2.68408 238.254V246.646H8.89569V236.386V236.386Z" stroke="#777E90" stroke-width="1.5" stroke-miterlimit="10" stroke-linecap="round" stroke-linejoin="round"/>
<path d="M13.241 228.929H10.7498C9.71725 228.929 8.88141 229.764 8.88141 230.797V246.629H15.0931V230.797C15.0931 229.764 14.2736 228.929 13.241 228.929Z" stroke="#777E90" stroke-width="1.5" stroke-miterlimit="10" stroke-linecap="round" stroke-linejoin="round"/>
<path d="M19.4475 239.172H15.1043V246.629H21.316V241.041C21.2996 240.008 20.4637 239.172 19.4475 239.172Z" stroke="#777E90" stroke-width="1.5" stroke-miterlimit="10" stroke-linecap="round" stroke-linejoin="round"/>
<path d="M6 336.646L12 342.646L18 336.646" stroke="#777E90" stroke-width="2"/>
</svg>
