<svg width="22" height="22" viewBox="0 0 22 22" fill="none" xmlns="http://www.w3.org/2000/svg">
<path d="M10.8888 16.5457C13.9912 16.5457 16.5061 14.0308 16.5061 10.9284C16.5061 7.8261 13.9912 5.31116 10.8888 5.31116C7.78647 5.31116 5.27153 7.8261 5.27153 10.9284C5.27153 14.0308 7.78647 16.5457 10.8888 16.5457Z" stroke="#777E90" stroke-width="1.48148" stroke-linecap="round" stroke-linejoin="round"/>
<path d="M17.0594 17.0991L16.9471 16.9867M16.9471 4.87069L17.0594 4.75835L16.9471 4.87069ZM4.71868 17.0991L4.83102 16.9867L4.71868 17.0991ZM10.889 2.35588V2.28674V2.35588ZM10.889 19.5707V19.5016V19.5707ZM2.31621 10.9287H2.24707H2.31621ZM19.531 10.9287H19.4619H19.531ZM4.83102 4.87069L4.71868 4.75835L4.83102 4.87069Z" stroke="#777E90" stroke-width="1.48148" stroke-linecap="round" stroke-linejoin="round"/>
</svg>
